<svg width="1000" height="1000" viewBox="0 0 1000 1000" fill="none" xmlns="http://www.w3.org/2000/svg">
<path d="M122.799 464.761C109 349 235.5 277 311.87 321.644C333.961 279.096 415.177 194 563.316 194C751.052 194 829.248 367.517 826.527 368.075C883.078 379.713 996.817 437.742 999.935 576.933C1003.83 750.994 832.304 803.212 816.711 805.146C804.236 806.693 364.499 805.79 146.189 805.146C98.1093 797.41 1.55935 747.899 0 611.745C0 567.785 37.0346 477.138 122.799 464.761Z" fill="white"/>
<path d="M331.362 428.015C311.091 460.506 339.809 484.101 356.702 491.837C344.227 516.592 342.499 584.924 350.775 620.076C358.527 653 393.736 720.049 407.381 727.786C421.025 735.522 444.415 731.653 450.263 714.247C456.111 696.841 480.62 658.81 532.946 664.62C602.14 672.304 602.713 692.472 612.403 716.911C624.578 747.617 661.469 735.62 666.667 726.595C686.18 692.472 682.171 679.07 693.912 673.633C752.387 646.557 841.085 645.253 870.155 637.506C898.243 630.021 914.762 581.304 908.915 554.228C904.237 532.567 862.192 530.517 843.999 522.781C837.762 470.176 775.543 419.183 743.057 405C743.057 392.107 743.057 382.5 738.743 369.995C735.273 359.935 725.099 335.182 693.912 337.116C668.962 338.664 649.73 363.548 643.233 375.797C507.752 333.443 415.177 411.253 395.686 428.015C382.691 414.477 345.007 406.146 331.362 428.015Z" fill="black"/>
<path d="M782.446 503.873C782.446 514.293 773.993 522.741 763.566 522.741C753.139 522.741 744.686 514.293 744.686 503.873C744.686 493.454 753.139 485.006 763.566 485.006C773.993 485.006 782.446 493.454 782.446 503.873Z" fill="white" stroke="black"/>
</svg>
